<svg width="1390" height="1172" viewBox="0 0 1390 1172" fill="none" xmlns="http://www.w3.org/2000/svg">
<g id="undraw_visualization_c2ps 1" clipPath="url(#clip0)" filter="url(#filter0_d)">
<g id="meee">
<path id="Vector" d="M717.561 189.002C717.561 189.002 644.741 168.482 623.202 268C601.664 367.518 618.074 417.79 618.074 417.79L780.638 398.81C780.638 398.81 826.791 219.267 717.561 189.002Z" fill="#5A372A"/>
<path id="Vector_2" d="M702.132 347.88C731.928 347.88 756.082 323.718 756.082 293.913C756.082 264.107 731.928 239.946 702.132 239.946C672.336 239.946 648.182 264.107 648.182 293.913C648.182 323.718 672.336 347.88 702.132 347.88Z" fill="#FEB88C"/>
<path id="Vector_3" d="M684.494 334.388C684.494 334.388 690.719 371.75 667.894 382.128L645.069 392.506L734.295 461.003L765.42 375.901C765.42 375.901 734.295 369.674 736.37 326.085L684.494 334.388Z" fill="#FEB88C"/>
<g id="Vector_4">
<path id="Vector_5" d="M678.583 384.661C678.583 384.661 733.193 393.873 755.257 371.672L804.968 376.215L791.145 490.231C791.145 490.231 793.12 552.165 771.397 553.573C749.675 554.981 757.574 540.905 757.574 540.905C757.574 540.905 747.7 550.758 731.902 550.758C716.104 550.758 684.507 542.312 684.507 542.312C684.507 542.312 639.087 538.089 625.264 539.497C611.441 540.905 552.197 547.942 609.466 507.122C609.466 507.122 639.087 493.046 635.138 488.823C631.188 484.601 625.264 466.302 625.264 466.302L627.239 387.476L670.955 380.606L678.583 384.661Z" fill="#575A89"/>
</g>
<path id="Vector_6" d="M723.226 219.481C723.226 219.481 702.713 273.857 652.457 296.428L644.252 248.208L723.226 219.481Z" fill="#5A372A"/>
<path id="Vector_7" d="M757.12 299.102C760.94 299.102 764.036 294.455 764.036 288.723C764.036 282.992 760.94 278.345 757.12 278.345C753.3 278.345 750.203 282.992 750.203 288.723C750.203 294.455 753.3 299.102 757.12 299.102Z" fill="#FEB88C"/>
<path id="Vector_8" d="M1354.64 572.019C1350.03 584.197 1344.34 595.881 1337.66 606.916C1334.53 612.177 1331.1 617.226 1327.38 622.031H177.558C178.593 621.169 184.666 615.916 194.112 606.916C200.889 600.469 209.394 592.088 218.944 582.003L340.133 555.245C341.699 554.899 343.294 554.725 344.893 554.725L474.09 554.526H474.224L538.218 554.437H538.363L592.372 554.371H627.726H663.939L812.329 554.15H812.567H824.062H844.258H869.473H876.177L901.661 553.84H910.083L984.206 553.73H1007.88H1019.26L1104.88 553.608H1130.37L1211.47 553.487L1279.92 553.398C1281.83 553.399 1283.73 553.64 1285.58 554.117L1354.64 572.019Z" fill="#454B69"/>
<path id="Vector_9" d="M652.842 538.919L763.103 563.287V589.686L652.842 593.747C652.842 593.747 641.029 547.041 652.842 538.919Z" fill="#FEB88C"/>
<path id="Vector_10" d="M651.508 396.929L629.849 386.776C629.849 386.776 604.253 392.868 602.284 415.206C600.315 437.543 562.905 581.723 592.44 587.815C621.974 593.907 661.352 593.907 661.352 593.907C661.352 593.907 635.756 557.354 667.259 537.047L643.632 524.863C643.632 524.863 620.005 470.034 635.756 441.605C651.508 413.175 651.508 396.929 651.508 396.929Z" fill="#575A89"/>
<path id="Vector_11" d="M792.364 376.745H810.085C810.085 376.745 829.774 399.082 825.836 419.389C821.898 439.696 810.085 535.139 810.085 535.139C810.085 535.139 751.017 591.998 721.483 561.538C691.949 531.077 713.607 502.648 713.607 502.648C713.607 502.648 752.986 535.139 774.644 492.494L792.364 376.745Z" fill="#575A89"/>
<path id="Vector_12" opacity="0.4" d="M195.733 606.899H1339.29C1336.15 612.16 1332.72 617.209 1329 622.014H179.179C180.193 621.096 186.266 615.844 195.733 606.899Z" fill="black"/>
<path id="Vector_13" opacity="0.1" d="M1353.22 576.997C1348.61 587.913 1342.94 598.387 1336.28 608.278C1333.16 612.994 1329.74 617.519 1326.03 621.827C1326 621.871 1325.96 621.911 1325.91 621.946H179.179L179.334 621.827C180.366 621.054 186.422 616.346 195.843 608.278C202.602 602.499 211.083 594.986 220.607 585.947C298.501 512.354 448.128 338.158 323.513 178.581C207.668 30.2349 332.397 3.31504 414.676 0.173075C446.288 -1.01651 477.825 3.93575 507.397 14.7332C545.41 28.6094 614.884 49.8796 705.397 59.6326C708.368 59.9498 711.361 60.2669 714.395 60.5544C762.315 65.2412 810.559 66.0833 858.625 63.0719C860.039 62.9926 861.463 62.8935 862.897 62.7944C910.446 59.5872 957.634 52.5752 1003.97 41.8314C1006.97 41.1277 1009.93 40.4636 1012.89 39.7995C1167.28 5.48567 1309.61 122.432 1274.02 254.593C1260.87 303.477 1264.21 355.582 1308.07 397.736C1379.89 466.542 1371.19 534.308 1353.22 576.997Z" fill="#6C63FF"/>
<path id="Vector_14" d="M935.03 587.755L785.895 608.841L778.435 609.892L705.523 568.272V558.53L933.374 531.971L935.03 587.755Z" fill="#9C9CA1"/>
<path id="Vector_15" d="M747.778 572.695L909.339 552.338L907.684 584.217L781.839 594.08L747.778 572.695Z" fill="#939498"/>
<g id="arms">
<g id="Vector_16" filter="url(#filter1_dd)">
<path d="M803.007 491.363L828.753 366.408C828.753 366.408 825.304 281.122 853.423 288.196C881.542 295.269 859.429 369.903 859.429 369.903L864.472 517.428C864.472 517.428 830.573 532.279 803.007 491.363Z" fill="#FEB88C"/>
</g>
</g>
<path id="Vector_17" opacity="0.4" d="M785.894 598.37V608.83L778.435 609.936L705.512 568.272V558.53L775.113 598.337C775.113 598.337 784.239 599.255 785.894 598.37Z" fill="black"/>
<path id="Vector_18" d="M814.523 432.344L781.042 598.26C780.704 599.921 780.746 601.644 781.163 603.284C781.58 604.925 782.36 606.434 783.437 607.684C784.515 608.934 785.858 609.889 787.354 610.468C788.849 611.046 790.453 611.232 792.03 611.009L1003.85 581.043C1005.7 580.783 1007.44 579.973 1008.87 578.706C1010.31 577.439 1011.38 575.766 1011.97 573.878L1057.67 426.594C1058.17 424.96 1058.3 423.219 1058.03 421.521C1057.77 419.824 1057.12 418.22 1056.15 416.849C1055.17 415.478 1053.9 414.381 1052.45 413.651C1050.99 412.922 1049.38 412.582 1047.78 412.662L823.752 424.029C821.573 424.139 819.488 425.013 817.82 426.516C816.152 428.019 814.993 430.067 814.523 432.344Z" fill="#3F3D56"/>
<path id="Vector_19" d="M930.917 493.553C931.437 488.269 929.283 483.697 926.106 483.34C922.929 482.983 919.933 486.977 919.413 492.261C918.893 497.545 921.047 502.118 924.224 502.474C927.401 502.831 930.397 498.837 930.917 493.553Z" fill="white"/>
</g>
</g>
<defs>
<filter id="filter0_d" x="0" y="0" width="1394" height="1180" filterUnits="userSpaceOnUse" colorInterpolationFilters="sRGB">
<feFlood floodOpacity="0" result="BackgroundImageFix"/>
<feColorMatrix in="SourceAlpha" type="matrix" values="0 0 0 0 0 0 0 0 0 0 0 0 0 0 0 0 0 0 127 0"/>
<feOffset dy="4"/>
<feGaussianBlur stdDeviation="2"/>
<feColorMatrix type="matrix" values="0 0 0 0 0 0 0 0 0 0 0 0 0 0 0 0 0 0 0.25 0"/>
<feBlend mode="normal" in2="BackgroundImageFix" result="effect1_dropShadow"/>
<feBlend mode="normal" in="SourceGraphic" in2="effect1_dropShadow" result="shape"/>
</filter>
<filter id="filter1_dd" x="768.148" y="284.244" width="166.65" height="250.123" filterUnits="userSpaceOnUse" colorInterpolationFilters="sRGB">
<feFlood floodOpacity="0" result="BackgroundImageFix"/>
<feColorMatrix in="SourceAlpha" type="matrix" values="0 0 0 0 0 0 0 0 0 0 0 0 0 0 0 0 0 0 127 0"/>
<feOffset dy="4"/>
<feGaussianBlur stdDeviation="2"/>
<feColorMatrix type="matrix" values="0 0 0 0 0 0 0 0 0 0 0 0 0 0 0 0 0 0 0.25 0"/>
<feBlend mode="normal" in2="BackgroundImageFix" result="effect1_dropShadow"/>
<feColorMatrix in="SourceAlpha" type="matrix" values="0 0 0 0 0 0 0 0 0 0 0 0 0 0 0 0 0 0 127 0"/>
<feOffset dy="4"/>
<feGaussianBlur stdDeviation="2"/>
<feColorMatrix type="matrix" values="0 0 0 0 0 0 0 0 0 0 0 0 0 0 0 0 0 0 0.25 0"/>
<feBlend mode="normal" in2="effect1_dropShadow" result="effect2_dropShadow"/>
<feBlend mode="normal" in="SourceGraphic" in2="effect2_dropShadow" result="shape"/>
</filter>
<clipPath id="clip0">
<rect width="1386" height="1172" fill="white" transform="translate(4)"/>
</clipPath>
</defs>
</svg>
