<svg width="1735" height="1515" viewBox="0 0 1735 1515" fill="none" xmlns="http://www.w3.org/2000/svg">
<rect width="1735" height="1515" fill="#E5E5E5"/>
<g id="undraw_code_review_l1q9 1">
<path id="Vector" d="M1436.09 298H313V1366.47H1436.09V298Z" fill="#3F3D56"/>
<path id="Vector_2" d="M868.334 429.922H582.528C582.072 429.923 581.62 429.821 581.198 429.621C580.776 429.421 580.393 429.127 580.07 428.756C579.747 428.386 579.491 427.946 579.317 427.461C579.142 426.976 579.052 426.457 579.052 425.932C579.052 425.408 579.142 424.888 579.317 424.404C579.491 423.919 579.747 423.479 580.07 423.109C580.393 422.738 580.776 422.444 581.198 422.244C581.62 422.044 582.072 421.942 582.528 421.943H868.334C869.253 421.945 870.133 422.367 870.782 423.114C871.431 423.862 871.795 424.876 871.795 425.932C871.795 426.989 871.431 428.002 870.782 428.75C870.133 429.498 869.253 429.92 868.334 429.922V429.922Z" fill="#F2F2F2"/>
<path id="Vector_3" d="M1181.19 473.805H731.674C730.754 473.805 729.872 473.385 729.222 472.636C728.571 471.888 728.206 470.874 728.206 469.816C728.206 468.758 728.571 467.743 729.222 466.995C729.872 466.246 730.754 465.826 731.674 465.826H1181.19C1181.65 465.826 1182.1 465.929 1182.52 466.13C1182.94 466.33 1183.33 466.624 1183.65 466.995C1183.97 467.365 1184.22 467.805 1184.4 468.289C1184.57 468.773 1184.66 469.292 1184.66 469.816C1184.66 470.339 1184.57 470.858 1184.4 471.342C1184.22 471.826 1183.97 472.266 1183.65 472.636C1183.33 473.007 1182.94 473.301 1182.52 473.501C1182.1 473.702 1181.65 473.805 1181.19 473.805V473.805Z" fill="#F2F2F2"/>
<path id="Vector_4" d="M869.721 517.688H583.915C582.995 517.688 582.113 517.268 581.462 516.52C580.812 515.771 580.447 514.757 580.447 513.699C580.447 512.641 580.812 511.626 581.462 510.878C582.113 510.13 582.995 509.709 583.915 509.709H869.721C870.641 509.709 871.523 510.13 872.174 510.878C872.824 511.626 873.19 512.641 873.19 513.699C873.19 514.757 872.824 515.771 872.174 516.52C871.523 517.268 870.641 517.688 869.721 517.688V517.688Z" fill="#F2F2F2"/>
<path id="Vector_5" d="M1181.19 518.486H895.388C894.468 518.486 893.586 518.066 892.936 517.318C892.285 516.569 891.92 515.555 891.92 514.497C891.92 513.439 892.285 512.424 892.936 511.676C893.586 510.927 894.468 510.507 895.388 510.507H1181.19C1182.11 510.507 1183 510.927 1183.65 511.676C1184.3 512.424 1184.66 513.439 1184.66 514.497C1184.66 515.555 1184.3 516.569 1183.65 517.318C1183 518.066 1182.11 518.486 1181.19 518.486V518.486Z" fill="#F2F2F2"/>
<path id="Vector_6" d="M870.415 561.571H584.609C583.689 561.571 582.807 561.151 582.156 560.403C581.506 559.655 581.14 558.64 581.14 557.582C581.14 556.524 581.506 555.509 582.156 554.761C582.807 554.013 583.689 553.592 584.609 553.592H870.415C871.335 553.592 872.217 554.013 872.868 554.761C873.518 555.509 873.884 556.524 873.884 557.582C873.884 558.64 873.518 559.655 872.868 560.403C872.217 561.151 871.335 561.571 870.415 561.571V561.571Z" fill="#F2F2F2"/>
<path id="Vector_7" d="M871.109 605.454H585.302C584.383 605.454 583.5 605.034 582.85 604.286C582.199 603.538 581.834 602.523 581.834 601.465C581.834 600.407 582.199 599.392 582.85 598.644C583.5 597.896 584.383 597.476 585.302 597.476H871.109C872.029 597.476 872.911 597.896 873.561 598.644C874.212 599.392 874.577 600.407 874.577 601.465C874.577 602.523 874.212 603.538 873.561 604.286C872.911 605.034 872.029 605.454 871.109 605.454V605.454Z" fill="#F2F2F2"/>
<path id="Vector_8" d="M1000.83 430.72H918.974C918.054 430.72 917.172 430.299 916.522 429.551C915.871 428.803 915.506 427.788 915.506 426.73C915.506 425.672 915.871 424.658 916.522 423.909C917.172 423.161 918.054 422.741 918.974 422.741H1000.83C1001.75 422.741 1002.63 423.161 1003.28 423.909C1003.93 424.658 1004.3 425.672 1004.3 426.73C1004.3 427.788 1003.93 428.803 1003.28 429.551C1002.63 430.299 1001.75 430.72 1000.83 430.72V430.72Z" fill="#F2F2F2"/>
<path id="Vector_9" d="M1000.83 561.571H918.974C918.054 561.571 917.172 561.151 916.522 560.403C915.871 559.655 915.506 558.64 915.506 557.582C915.506 556.524 915.871 555.509 916.522 554.761C917.172 554.013 918.054 553.592 918.974 553.592H1000.83C1001.75 553.592 1002.63 554.013 1003.28 554.761C1003.93 555.509 1004.3 556.524 1004.3 557.582C1004.3 558.64 1003.93 559.655 1003.28 560.403C1002.63 561.151 1001.75 561.571 1000.83 561.571V561.571Z" fill="#F2F2F2"/>
<path id="Vector_10" d="M1000.83 604.656H918.974C918.518 604.657 918.066 604.555 917.645 604.355C917.223 604.155 916.84 603.861 916.517 603.491C916.194 603.12 915.938 602.68 915.763 602.196C915.588 601.711 915.498 601.192 915.498 600.667C915.498 600.142 915.588 599.623 915.763 599.138C915.938 598.654 916.194 598.214 916.517 597.843C916.84 597.473 917.223 597.179 917.645 596.979C918.066 596.779 918.518 596.677 918.974 596.678H1000.83C1001.29 596.677 1001.74 596.779 1002.16 596.979C1002.58 597.179 1002.97 597.473 1003.29 597.843C1003.61 598.214 1003.87 598.654 1004.04 599.138C1004.22 599.623 1004.31 600.142 1004.31 600.667C1004.31 601.192 1004.22 601.711 1004.04 602.196C1003.87 602.68 1003.61 603.12 1003.29 603.491C1002.97 603.861 1002.58 604.155 1002.16 604.355C1001.74 604.555 1001.29 604.657 1000.83 604.656V604.656Z" fill="#F2F2F2"/>
<path id="Vector_11" d="M1138.18 604.656H1056.33C1055.41 604.654 1054.53 604.233 1053.88 603.485C1053.23 602.737 1052.87 601.724 1052.87 600.667C1052.87 599.61 1053.23 598.597 1053.88 597.849C1054.53 597.101 1055.41 596.68 1056.33 596.678H1138.18C1138.64 596.677 1139.09 596.779 1139.51 596.979C1139.94 597.179 1140.32 597.473 1140.64 597.843C1140.97 598.214 1141.22 598.654 1141.4 599.138C1141.57 599.623 1141.66 600.142 1141.66 600.667C1141.66 601.192 1141.57 601.711 1141.4 602.196C1141.22 602.68 1140.97 603.12 1140.64 603.491C1140.32 603.861 1139.94 604.155 1139.51 604.355C1139.09 604.555 1138.64 604.657 1138.18 604.656V604.656Z" fill="#F2F2F2"/>
<path id="Vector_12" d="M663.691 473.805H581.834C580.914 473.805 580.032 473.385 579.381 472.636C578.731 471.888 578.365 470.874 578.365 469.816C578.365 468.758 578.731 467.743 579.381 466.995C580.032 466.246 580.914 465.826 581.834 465.826H663.691C664.611 465.826 665.493 466.246 666.144 466.995C666.794 467.743 667.16 468.758 667.16 469.816C667.16 470.874 666.794 471.888 666.144 472.636C665.493 473.385 664.611 473.805 663.691 473.805V473.805Z" fill="#F2F2F2"/>
<path id="Vector_13" d="M868.681 1076.2H582.875C581.955 1076.2 581.072 1075.78 580.422 1075.03C579.771 1074.28 579.406 1073.27 579.406 1072.21C579.406 1071.15 579.771 1070.14 580.422 1069.39C581.072 1068.64 581.955 1068.22 582.875 1068.22H868.681C869.601 1068.22 870.483 1068.64 871.133 1069.39C871.784 1070.14 872.149 1071.15 872.149 1072.21C872.149 1073.27 871.784 1074.28 871.133 1075.03C870.483 1075.78 869.601 1076.2 868.681 1076.2Z" fill="#F2F2F2"/>
<path id="Vector_14" d="M867.293 1163.97H581.487C580.567 1163.97 579.685 1163.55 579.034 1162.8C578.384 1162.05 578.019 1161.04 578.019 1159.98C578.019 1158.92 578.384 1157.9 579.034 1157.16C579.685 1156.41 580.567 1155.99 581.487 1155.99H867.293C868.213 1155.99 869.096 1156.41 869.746 1157.16C870.397 1157.9 870.762 1158.92 870.762 1159.98C870.762 1161.04 870.397 1162.05 869.746 1162.8C869.096 1163.55 868.213 1163.97 867.293 1163.97Z" fill="#F2F2F2"/>
<path id="Vector_15" d="M867.987 1207.85H582.181C581.725 1207.85 581.273 1207.75 580.851 1207.55C580.43 1207.35 580.046 1207.05 579.723 1206.68C579.401 1206.31 579.144 1205.87 578.97 1205.39C578.795 1204.9 578.705 1204.38 578.705 1203.86C578.705 1203.34 578.795 1202.82 578.97 1202.33C579.144 1201.85 579.401 1201.41 579.723 1201.04C580.046 1200.67 580.43 1200.37 580.851 1200.17C581.273 1199.97 581.725 1199.87 582.181 1199.87H867.987C868.443 1199.87 868.895 1199.97 869.317 1200.17C869.738 1200.37 870.122 1200.67 870.444 1201.04C870.767 1201.41 871.023 1201.85 871.198 1202.33C871.373 1202.82 871.463 1203.34 871.463 1203.86C871.463 1204.38 871.373 1204.9 871.198 1205.39C871.023 1205.87 870.767 1206.31 870.444 1206.68C870.122 1207.05 869.738 1207.35 869.317 1207.55C868.895 1207.75 868.443 1207.85 867.987 1207.85V1207.85Z" fill="#F2F2F2"/>
<path id="Vector_16" d="M990.079 1164.76H908.222C907.302 1164.76 906.42 1164.34 905.769 1163.6C905.119 1162.85 904.753 1161.83 904.753 1160.78C904.753 1159.72 905.119 1158.7 905.769 1157.95C906.42 1157.21 907.302 1156.79 908.222 1156.79H990.079C990.999 1156.79 991.881 1157.21 992.532 1157.95C993.182 1158.7 993.548 1159.72 993.548 1160.78C993.548 1161.83 993.182 1162.85 992.532 1163.6C991.881 1164.34 990.999 1164.76 990.079 1164.76Z" fill="#F2F2F2"/>
<path id="Vector_17" d="M990.079 1207.85H908.222C907.302 1207.85 906.42 1207.43 905.769 1206.68C905.119 1205.93 904.753 1204.92 904.753 1203.86C904.753 1202.8 905.119 1201.79 905.769 1201.04C906.42 1200.29 907.302 1199.87 908.222 1199.87H990.079C990.999 1199.87 991.881 1200.29 992.532 1201.04C993.182 1201.79 993.548 1202.8 993.548 1203.86C993.548 1204.92 993.182 1205.93 992.532 1206.68C991.881 1207.43 990.999 1207.85 990.079 1207.85V1207.85Z" fill="#F2F2F2"/>
<path id="Vector_18" d="M1127.43 1164.76H1045.58C1044.66 1164.76 1043.77 1164.34 1043.12 1163.6C1042.47 1162.85 1042.11 1161.83 1042.11 1160.78C1042.11 1159.72 1042.47 1158.7 1043.12 1157.95C1043.77 1157.21 1044.66 1156.79 1045.58 1156.79H1127.43C1128.35 1156.79 1129.23 1157.21 1129.89 1157.95C1130.54 1158.7 1130.9 1159.72 1130.9 1160.78C1130.9 1161.83 1130.54 1162.85 1129.89 1163.6C1129.23 1164.34 1128.35 1164.76 1127.43 1164.76V1164.76Z" fill="#F2F2F2"/>
<path id="Vector_19" d="M1181.54 1120.08H732.021C731.101 1120.08 730.219 1119.66 729.568 1118.91C728.918 1118.17 728.552 1117.15 728.552 1116.09C728.552 1115.04 728.918 1114.02 729.568 1113.27C730.219 1112.53 731.101 1112.1 732.021 1112.1H1181.54C1182.46 1112.1 1183.34 1112.53 1183.99 1113.27C1184.64 1114.02 1185.01 1115.04 1185.01 1116.09C1185.01 1117.15 1184.64 1118.17 1183.99 1118.91C1183.34 1119.66 1182.46 1120.08 1181.54 1120.08V1120.08Z" fill="#F2F2F2"/>
<path id="Vector_20" d="M664.038 1120.08H582.181C581.261 1120.08 580.379 1119.66 579.728 1118.91C579.078 1118.17 578.712 1117.15 578.712 1116.09C578.712 1115.04 579.078 1114.02 579.728 1113.27C580.379 1112.53 581.261 1112.1 582.181 1112.1H664.038C664.958 1112.1 665.84 1112.53 666.491 1113.27C667.141 1114.02 667.506 1115.04 667.506 1116.09C667.506 1117.15 667.141 1118.17 666.491 1118.91C665.84 1119.66 664.958 1120.08 664.038 1120.08V1120.08Z" fill="#F2F2F2"/>
<path id="Vector_21" d="M1181.54 1252.53H732.021C731.565 1252.53 731.113 1252.43 730.691 1252.23C730.27 1252.03 729.886 1251.74 729.564 1251.37C729.241 1250.99 728.985 1250.55 728.81 1250.07C728.635 1249.59 728.545 1249.07 728.545 1248.54C728.545 1248.02 728.635 1247.5 728.81 1247.01C728.985 1246.53 729.241 1246.09 729.564 1245.72C729.886 1245.35 730.27 1245.05 730.691 1244.85C731.113 1244.65 731.565 1244.55 732.021 1244.55H1181.54C1182.46 1244.55 1183.34 1244.97 1183.99 1245.72C1184.64 1246.47 1185.01 1247.48 1185.01 1248.54C1185.01 1249.6 1184.64 1250.61 1183.99 1251.36C1183.34 1252.11 1182.46 1252.53 1181.54 1252.53V1252.53Z" fill="#F2F2F2"/>
<path id="Vector_22" d="M664.038 1252.53H582.181C581.725 1252.53 581.273 1252.43 580.851 1252.23C580.43 1252.03 580.046 1251.74 579.723 1251.37C579.401 1250.99 579.144 1250.55 578.97 1250.07C578.795 1249.59 578.705 1249.07 578.705 1248.54C578.705 1248.02 578.795 1247.5 578.97 1247.01C579.144 1246.53 579.401 1246.09 579.723 1245.72C580.046 1245.35 580.43 1245.05 580.851 1244.85C581.273 1244.65 581.725 1244.55 582.181 1244.55H664.038C664.494 1244.55 664.946 1244.65 665.368 1244.85C665.789 1245.05 666.172 1245.35 666.495 1245.72C666.818 1246.09 667.074 1246.53 667.249 1247.01C667.424 1247.5 667.514 1248.02 667.514 1248.54C667.514 1249.07 667.424 1249.59 667.249 1250.07C667.074 1250.55 666.818 1250.99 666.495 1251.37C666.172 1251.74 665.789 1252.03 665.368 1252.23C664.946 1252.43 664.494 1252.53 664.038 1252.53Z" fill="#F2F2F2"/>
<path id="Vector_23" d="M799.657 710.774L688.664 836.838L799.657 962.902L824.63 934.179L740.693 837.636L825.324 740.295L799.657 710.774Z" fill="#6C63FF"/>
<path id="Vector_24" d="M963.371 710.774L1074.36 836.838L963.371 962.902L938.398 934.179L1022.34 837.636L937.705 740.295L963.371 710.774Z" fill="#6C63FF"/>
<path id="Vector_25" d="M333.065 329.579C340.723 329.579 346.93 322.439 346.93 313.632C346.93 304.824 340.723 297.684 333.065 297.684C325.408 297.684 319.2 304.824 319.2 313.632C319.2 322.439 325.408 329.579 333.065 329.579Z" fill="#6C63FF"/>
<path id="Vector_26" d="M370.039 329.579C377.697 329.579 383.905 322.439 383.905 313.632C383.905 304.824 377.697 297.684 370.039 297.684C362.382 297.684 356.174 304.824 356.174 313.632C356.174 322.439 362.382 329.579 370.039 329.579Z" fill="#6C63FF"/>
<path id="Vector_27" d="M407.013 329.579C414.671 329.579 420.879 322.439 420.879 313.632C420.879 304.824 414.671 297.684 407.013 297.684C399.356 297.684 393.148 304.824 393.148 313.632C393.148 322.439 399.356 329.579 407.013 329.579Z" fill="#6C63FF"/>
<path id="Vector_28" opacity="0.1" d="M1425 340H302V346H1425V340Z" fill="black"/>
</g>
</svg>
